<mxfile host="app.diagrams.net" modified="2020-11-09T09:52:57.148Z" agent="5.0 (Windows NT 10.0; Win64; x64) AppleWebKit/537.36 (KHTML, like Gecko) Chrome/86.0.4240.183 Safari/537.36" etag="RvSzblumlzocr-G0HuPs" version="13.9.2" type="github">
  <diagram id="P3OXpN5Hu313iaWzY8DK" name="Page-1">
    <mxGraphModel dx="2485" dy="888" grid="1" gridSize="10" guides="1" tooltips="1" connect="1" arrows="1" fold="1" page="1" pageScale="1" pageWidth="827" pageHeight="1169" math="0" shadow="0">
      <root>
        <mxCell id="0" />
        <mxCell id="1" parent="0" />
        <mxCell id="Czrq7sJ7vTTmv0vpG3Vr-14" style="edgeStyle=orthogonalEdgeStyle;rounded=0;orthogonalLoop=1;jettySize=auto;html=1;entryX=0.5;entryY=0;entryDx=0;entryDy=0;" parent="1" source="Czrq7sJ7vTTmv0vpG3Vr-11" target="Czrq7sJ7vTTmv0vpG3Vr-13" edge="1">
          <mxGeometry relative="1" as="geometry">
            <Array as="points">
              <mxPoint x="-443" y="470" />
            </Array>
          </mxGeometry>
        </mxCell>
        <mxCell id="Czrq7sJ7vTTmv0vpG3Vr-15" style="edgeStyle=orthogonalEdgeStyle;rounded=0;orthogonalLoop=1;jettySize=auto;html=1;" parent="1" target="Czrq7sJ7vTTmv0vpG3Vr-12" edge="1" source="Czrq7sJ7vTTmv0vpG3Vr-11">
          <mxGeometry relative="1" as="geometry">
            <mxPoint x="-333" y="470" as="sourcePoint" />
            <Array as="points">
              <mxPoint x="-243" y="470" />
              <mxPoint x="-243" y="470" />
            </Array>
          </mxGeometry>
        </mxCell>
        <mxCell id="Czrq7sJ7vTTmv0vpG3Vr-34" style="edgeStyle=orthogonalEdgeStyle;rounded=0;orthogonalLoop=1;jettySize=auto;html=1;" parent="1" target="Czrq7sJ7vTTmv0vpG3Vr-18" edge="1">
          <mxGeometry relative="1" as="geometry">
            <Array as="points">
              <mxPoint x="-233" y="630" />
              <mxPoint x="-163" y="630" />
            </Array>
            <mxPoint x="-233" y="570" as="sourcePoint" />
          </mxGeometry>
        </mxCell>
        <mxCell id="Czrq7sJ7vTTmv0vpG3Vr-47" style="edgeStyle=orthogonalEdgeStyle;rounded=0;orthogonalLoop=1;jettySize=auto;html=1;" parent="1" target="Czrq7sJ7vTTmv0vpG3Vr-45" edge="1">
          <mxGeometry relative="1" as="geometry">
            <Array as="points">
              <mxPoint x="-253" y="630" />
              <mxPoint x="-363" y="630" />
            </Array>
            <mxPoint x="-253" y="570" as="sourcePoint" />
          </mxGeometry>
        </mxCell>
        <mxCell id="Czrq7sJ7vTTmv0vpG3Vr-12" value="项目隐语义向量" style="rounded=0;whiteSpace=wrap;html=1;" parent="1" vertex="1">
          <mxGeometry x="-303" y="550" width="120" height="40" as="geometry" />
        </mxCell>
        <mxCell id="Czrq7sJ7vTTmv0vpG3Vr-46" style="edgeStyle=orthogonalEdgeStyle;rounded=0;orthogonalLoop=1;jettySize=auto;html=1;" parent="1" target="Czrq7sJ7vTTmv0vpG3Vr-45" edge="1">
          <mxGeometry relative="1" as="geometry">
            <Array as="points">
              <mxPoint x="-443" y="630" />
              <mxPoint x="-363" y="630" />
            </Array>
            <mxPoint x="-443" y="570" as="sourcePoint" />
          </mxGeometry>
        </mxCell>
        <mxCell id="Czrq7sJ7vTTmv0vpG3Vr-13" value="用户隐语义向量" style="rounded=0;whiteSpace=wrap;html=1;" parent="1" vertex="1">
          <mxGeometry x="-503" y="550" width="120" height="40" as="geometry" />
        </mxCell>
        <mxCell id="Czrq7sJ7vTTmv0vpG3Vr-19" style="edgeStyle=orthogonalEdgeStyle;rounded=0;orthogonalLoop=1;jettySize=auto;html=1;entryX=0.5;entryY=0;entryDx=0;entryDy=0;" parent="1" target="Czrq7sJ7vTTmv0vpG3Vr-17" edge="1">
          <mxGeometry relative="1" as="geometry">
            <mxPoint x="-103" y="440" as="sourcePoint" />
          </mxGeometry>
        </mxCell>
        <mxCell id="Czrq7sJ7vTTmv0vpG3Vr-16" value="新用户" style="rounded=0;whiteSpace=wrap;html=1;" parent="1" vertex="1">
          <mxGeometry x="-163" y="420" width="120" height="40" as="geometry" />
        </mxCell>
        <mxCell id="9EU97zKiNWSgScrx3P1H-13" style="edgeStyle=orthogonalEdgeStyle;rounded=0;orthogonalLoop=1;jettySize=auto;html=1;entryX=0.5;entryY=0;entryDx=0;entryDy=0;" edge="1" parent="1" target="Czrq7sJ7vTTmv0vpG3Vr-18">
          <mxGeometry relative="1" as="geometry">
            <mxPoint x="-103" y="570" as="sourcePoint" />
            <Array as="points">
              <mxPoint x="-103" y="630" />
              <mxPoint x="-163" y="630" />
            </Array>
          </mxGeometry>
        </mxCell>
        <mxCell id="Czrq7sJ7vTTmv0vpG3Vr-17" value="新用户隐语义向量" style="rounded=0;whiteSpace=wrap;html=1;" parent="1" vertex="1">
          <mxGeometry x="-163" y="550" width="120" height="40" as="geometry" />
        </mxCell>
        <mxCell id="Czrq7sJ7vTTmv0vpG3Vr-53" style="edgeStyle=orthogonalEdgeStyle;rounded=0;orthogonalLoop=1;jettySize=auto;html=1;entryX=0.5;entryY=0;entryDx=0;entryDy=0;" parent="1" source="Czrq7sJ7vTTmv0vpG3Vr-18" target="Czrq7sJ7vTTmv0vpG3Vr-51" edge="1">
          <mxGeometry relative="1" as="geometry" />
        </mxCell>
        <mxCell id="Czrq7sJ7vTTmv0vpG3Vr-18" value="冷启动用户评分矩阵预测" style="rounded=0;whiteSpace=wrap;html=1;" parent="1" vertex="1">
          <mxGeometry x="-223" y="660" width="120" height="40" as="geometry" />
        </mxCell>
        <mxCell id="Czrq7sJ7vTTmv0vpG3Vr-24" style="edgeStyle=orthogonalEdgeStyle;rounded=0;orthogonalLoop=1;jettySize=auto;html=1;entryX=0.5;entryY=0;entryDx=0;entryDy=0;" parent="1" source="Czrq7sJ7vTTmv0vpG3Vr-23" target="Czrq7sJ7vTTmv0vpG3Vr-16" edge="1">
          <mxGeometry relative="1" as="geometry" />
        </mxCell>
        <mxCell id="Czrq7sJ7vTTmv0vpG3Vr-23" value="冷启动" style="rounded=0;whiteSpace=wrap;html=1;" parent="1" vertex="1">
          <mxGeometry x="-163" y="350" width="120" height="40" as="geometry" />
        </mxCell>
        <mxCell id="Czrq7sJ7vTTmv0vpG3Vr-30" style="edgeStyle=orthogonalEdgeStyle;rounded=0;orthogonalLoop=1;jettySize=auto;html=1;entryX=0.5;entryY=0;entryDx=0;entryDy=0;exitX=0.5;exitY=1;exitDx=0;exitDy=0;" parent="1" target="Czrq7sJ7vTTmv0vpG3Vr-28" edge="1">
          <mxGeometry relative="1" as="geometry">
            <mxPoint x="-663" y="340" as="sourcePoint" />
            <Array as="points">
              <mxPoint x="-663" y="470" />
              <mxPoint x="-743" y="470" />
            </Array>
          </mxGeometry>
        </mxCell>
        <mxCell id="Czrq7sJ7vTTmv0vpG3Vr-31" style="edgeStyle=orthogonalEdgeStyle;rounded=0;orthogonalLoop=1;jettySize=auto;html=1;exitX=0.5;exitY=1;exitDx=0;exitDy=0;entryX=0.421;entryY=-0.042;entryDx=0;entryDy=0;entryPerimeter=0;" parent="1" target="Czrq7sJ7vTTmv0vpG3Vr-29" edge="1">
          <mxGeometry relative="1" as="geometry">
            <mxPoint x="-663" y="340" as="sourcePoint" />
            <mxPoint x="-583" y="500" as="targetPoint" />
            <Array as="points">
              <mxPoint x="-663" y="470" />
              <mxPoint x="-582" y="470" />
            </Array>
          </mxGeometry>
        </mxCell>
        <mxCell id="Czrq7sJ7vTTmv0vpG3Vr-27" value="准确度" style="rounded=0;whiteSpace=wrap;html=1;" parent="1" vertex="1">
          <mxGeometry x="-723" y="350" width="120" height="40" as="geometry" />
        </mxCell>
        <mxCell id="Czrq7sJ7vTTmv0vpG3Vr-37" style="edgeStyle=orthogonalEdgeStyle;rounded=0;orthogonalLoop=1;jettySize=auto;html=1;" parent="1" source="Czrq7sJ7vTTmv0vpG3Vr-28" target="Czrq7sJ7vTTmv0vpG3Vr-36" edge="1">
          <mxGeometry relative="1" as="geometry" />
        </mxCell>
        <mxCell id="Czrq7sJ7vTTmv0vpG3Vr-28" value="用户属性" style="rounded=0;whiteSpace=wrap;html=1;" parent="1" vertex="1">
          <mxGeometry x="-803" y="500" width="120" height="40" as="geometry" />
        </mxCell>
        <mxCell id="Czrq7sJ7vTTmv0vpG3Vr-38" style="edgeStyle=orthogonalEdgeStyle;rounded=0;orthogonalLoop=1;jettySize=auto;html=1;entryX=0.5;entryY=0;entryDx=0;entryDy=0;" parent="1" source="Czrq7sJ7vTTmv0vpG3Vr-29" target="Czrq7sJ7vTTmv0vpG3Vr-36" edge="1">
          <mxGeometry relative="1" as="geometry" />
        </mxCell>
        <mxCell id="Czrq7sJ7vTTmv0vpG3Vr-29" value="项目属性" style="rounded=0;whiteSpace=wrap;html=1;" parent="1" vertex="1">
          <mxGeometry x="-633" y="500" width="120" height="40" as="geometry" />
        </mxCell>
        <mxCell id="Czrq7sJ7vTTmv0vpG3Vr-55" style="edgeStyle=orthogonalEdgeStyle;rounded=0;orthogonalLoop=1;jettySize=auto;html=1;" parent="1" source="Czrq7sJ7vTTmv0vpG3Vr-36" target="Czrq7sJ7vTTmv0vpG3Vr-42" edge="1">
          <mxGeometry relative="1" as="geometry" />
        </mxCell>
        <mxCell id="Czrq7sJ7vTTmv0vpG3Vr-36" value="考虑其他因素影响" style="rounded=0;whiteSpace=wrap;html=1;" parent="1" vertex="1">
          <mxGeometry x="-723" y="620" width="120" height="40" as="geometry" />
        </mxCell>
        <mxCell id="Czrq7sJ7vTTmv0vpG3Vr-42" value="预测评分" style="rounded=0;whiteSpace=wrap;html=1;" parent="1" vertex="1">
          <mxGeometry x="-723" y="770" width="120" height="40" as="geometry" />
        </mxCell>
        <mxCell id="Czrq7sJ7vTTmv0vpG3Vr-52" style="edgeStyle=orthogonalEdgeStyle;rounded=0;orthogonalLoop=1;jettySize=auto;html=1;" parent="1" source="Czrq7sJ7vTTmv0vpG3Vr-45" target="Czrq7sJ7vTTmv0vpG3Vr-51" edge="1">
          <mxGeometry relative="1" as="geometry" />
        </mxCell>
        <mxCell id="Czrq7sJ7vTTmv0vpG3Vr-45" value="无冷启动用户评分矩阵预测" style="rounded=0;whiteSpace=wrap;html=1;" parent="1" vertex="1">
          <mxGeometry x="-423" y="660" width="120" height="40" as="geometry" />
        </mxCell>
        <mxCell id="Czrq7sJ7vTTmv0vpG3Vr-50" style="edgeStyle=orthogonalEdgeStyle;rounded=0;orthogonalLoop=1;jettySize=auto;html=1;entryX=0.5;entryY=0;entryDx=0;entryDy=0;" parent="1" source="Czrq7sJ7vTTmv0vpG3Vr-49" target="Czrq7sJ7vTTmv0vpG3Vr-11" edge="1">
          <mxGeometry relative="1" as="geometry" />
        </mxCell>
        <mxCell id="Czrq7sJ7vTTmv0vpG3Vr-49" value="扩展性" style="rounded=0;whiteSpace=wrap;html=1;" parent="1" vertex="1">
          <mxGeometry x="-403" y="350" width="120" height="40" as="geometry" />
        </mxCell>
        <mxCell id="Czrq7sJ7vTTmv0vpG3Vr-57" style="edgeStyle=orthogonalEdgeStyle;rounded=0;orthogonalLoop=1;jettySize=auto;html=1;entryX=0.5;entryY=0;entryDx=0;entryDy=0;" parent="1" source="Czrq7sJ7vTTmv0vpG3Vr-51" target="Czrq7sJ7vTTmv0vpG3Vr-42" edge="1">
          <mxGeometry relative="1" as="geometry" />
        </mxCell>
        <mxCell id="Czrq7sJ7vTTmv0vpG3Vr-51" value="根据评分矩阵进行的评分预测" style="rounded=0;whiteSpace=wrap;html=1;" parent="1" vertex="1">
          <mxGeometry x="-303" y="770" width="120" height="40" as="geometry" />
        </mxCell>
        <mxCell id="9EU97zKiNWSgScrx3P1H-2" style="edgeStyle=orthogonalEdgeStyle;rounded=0;orthogonalLoop=1;jettySize=auto;html=1;entryX=0.5;entryY=0;entryDx=0;entryDy=0;" edge="1" parent="1" source="9EU97zKiNWSgScrx3P1H-1" target="Czrq7sJ7vTTmv0vpG3Vr-27">
          <mxGeometry relative="1" as="geometry">
            <Array as="points">
              <mxPoint x="-343" y="320" />
              <mxPoint x="-663" y="320" />
            </Array>
          </mxGeometry>
        </mxCell>
        <mxCell id="9EU97zKiNWSgScrx3P1H-3" value="" style="edgeStyle=orthogonalEdgeStyle;rounded=0;orthogonalLoop=1;jettySize=auto;html=1;" edge="1" parent="1" source="9EU97zKiNWSgScrx3P1H-1" target="Czrq7sJ7vTTmv0vpG3Vr-49">
          <mxGeometry relative="1" as="geometry" />
        </mxCell>
        <mxCell id="9EU97zKiNWSgScrx3P1H-4" style="edgeStyle=orthogonalEdgeStyle;rounded=0;orthogonalLoop=1;jettySize=auto;html=1;entryX=0.5;entryY=0;entryDx=0;entryDy=0;" edge="1" parent="1" source="9EU97zKiNWSgScrx3P1H-1" target="Czrq7sJ7vTTmv0vpG3Vr-23">
          <mxGeometry relative="1" as="geometry">
            <Array as="points">
              <mxPoint x="-343" y="320" />
              <mxPoint x="-103" y="320" />
            </Array>
          </mxGeometry>
        </mxCell>
        <mxCell id="9EU97zKiNWSgScrx3P1H-1" value="传统推荐系统存在的需要改进的问题" style="rounded=0;whiteSpace=wrap;html=1;" vertex="1" parent="1">
          <mxGeometry x="-459.5" y="240" width="233" height="40" as="geometry" />
        </mxCell>
        <mxCell id="9EU97zKiNWSgScrx3P1H-8" value="" style="edgeStyle=orthogonalEdgeStyle;rounded=0;orthogonalLoop=1;jettySize=auto;html=1;" edge="1" parent="1" source="9EU97zKiNWSgScrx3P1H-5" target="9EU97zKiNWSgScrx3P1H-1">
          <mxGeometry relative="1" as="geometry" />
        </mxCell>
        <mxCell id="9EU97zKiNWSgScrx3P1H-5" value="查阅文献学习相关知识" style="rounded=0;whiteSpace=wrap;html=1;" vertex="1" parent="1">
          <mxGeometry x="-409.5" y="170" width="133" height="40" as="geometry" />
        </mxCell>
        <mxCell id="Czrq7sJ7vTTmv0vpG3Vr-11" value="评分矩阵" style="rounded=0;whiteSpace=wrap;html=1;" parent="1" vertex="1">
          <mxGeometry x="-403" y="450" width="120" height="40" as="geometry" />
        </mxCell>
        <mxCell id="9EU97zKiNWSgScrx3P1H-12" value="通过用户属性建立模型&lt;br&gt;学习用户隐语义向量" style="text;html=1;align=center;verticalAlign=middle;resizable=0;points=[];autosize=1;" vertex="1" parent="1">
          <mxGeometry x="-163" y="490" width="140" height="30" as="geometry" />
        </mxCell>
      </root>
    </mxGraphModel>
  </diagram>
</mxfile>
